<?xml version="1.0" encoding="UTF-8" standalone="no"?>
<!DOCTYPE svg PUBLIC "-//W3C//DTD SVG 1.1//EN" "http://www.w3.org/Graphics/SVG/1.1/DTD/svg11.dtd">
<svg width="100%" height="100%" viewBox="193 200 2677 800" version="1.1" xmlns="http://www.w3.org/2000/svg" xmlns:xlink="http://www.w3.org/1999/xlink" xml:space="preserve" xmlns:serif="http://www.serif.com/" style="fill-rule:evenodd;clip-rule:evenodd;stroke-linejoin:round;stroke-miterlimit:2;">
    <g id="Artboard1" transform="matrix(1.206776,0,0,0.851079,1.206776,11.915106)">
        <rect x="-1" y="-14" width="2544" height="1410" style="fill:none;"/>
        <g>
            <g transform="matrix(0.762425,0.201359,-0.142008,1.08107,186.574467,-189.189789)">
                <g transform="matrix(0.991965,-0.126512,0.126512,0.991965,-820.225148,158.258296)">
                    <path d="M1337.987,668.05C1328.801,675.789 1321.53,680.226 1315.789,681.857C1312.948,682.664 1310.828,682.933 1309.515,681.54C1308.166,680.108 1307.71,677.836 1307.488,675.204C1306.976,669.155 1308.429,661.526 1311.305,653.677C1322.362,623.503 1412.586,376.737 1418.273,361.762C1421.175,354.123 1426.986,339.659 1441.18,334.194C1450.892,330.455 1464.188,331.213 1482.65,340.022C1534.087,364.565 1573.654,397.446 1586.811,414.715C1598.381,429.9 1615.639,459.96 1585.596,480.586C1550.371,504.771 1374.949,636.909 1337.987,668.05Z" style="fill:rgb(215,255,100);"/>
                    <g transform="matrix(0.395121,-0.918629,0.918629,0.395121,100.879785,1616.698749)">
                        <path d="M1239.635,679.713C1233.22,674.041 1168.74,617.073 1109.053,566.084C1071.392,533.912 1040.985,513.875 1018.604,497.647C1004.515,487.43 993.721,478.894 986.595,469.53C978.507,458.901 973.711,449.68 973.913,440.184C974.114,430.723 979.334,421.365 989.679,410.318C1019.092,378.91 1071.486,343.118 1117.852,330.845C1128.082,328.137 1136.209,326.347 1142.79,325.715C1148.038,325.21 1152.07,325.381 1155.278,326.815C1159.954,328.907 1162.355,333.648 1164.948,340.755C1168.396,350.209 1171.383,363.317 1175.856,380.684C1181.659,403.212 1229.221,567.436 1241.41,617.267C1247.445,641.938 1251.07,655.901 1252.609,664.584C1253.614,670.25 1253.923,672.5 1252.447,674.806C1249.952,678.704 1244.73,682.582 1239.637,679.714L1239.635,679.713Z" style="fill:rgb(215,255,100);"/>
                    </g>
                    <g transform="matrix(-0.218546,0.975827,-0.975827,-0.218546,2270.833993,-365.417624)">
                        <path d="M1239.983,681.623C1234.655,677.33 1165.701,621.669 1106.701,568.813C1044.54,513.123 1014.606,493.048 992.031,469.362C985.693,462.712 979.77,457.553 975.348,452.567C972.151,448.963 969.749,445.635 969.484,441.353C969.062,434.528 973.223,426.282 982.867,413.351C996.052,395.673 1034.617,352.181 1122.679,328.211C1131.62,325.777 1138.662,326.186 1144.28,328.771C1149.879,331.348 1153.961,335.963 1157.227,341.248C1162.327,349.5 1165.439,359.404 1168.06,367.723C1175.041,389.876 1224.669,570.6 1236.839,620.353C1244.051,649.835 1248.411,666.368 1249.746,676.403C1250.298,680.546 1250.65,682.938 1249.535,684.681C1249.276,685.086 1249.055,685.437 1248.743,685.635C1248.518,685.778 1248.26,685.589 1247.97,685.53C1247.362,685.407 1246.727,685.193 1246.059,684.922C1244.199,684.17 1242.187,683.023 1239.991,681.629L1239.983,681.623Z" style="fill:rgb(215,255,100);"/>
                    </g>
                    <g transform="matrix(-0.221138,-0.975243,0.975243,-0.221138,846.699478,2128.798329)">
                        <path d="M1211.445,665.803C1185.165,648.661 1155.144,627.558 1088.09,579.591C1021.578,532.012 1002.724,524.129 971.653,502.93C959.905,494.915 953.525,486.519 952.036,476.981C949.627,461.556 959.011,444.31 974.362,423.727C987.566,406.024 1030.9,354.478 1119.09,330.473C1131.735,327.031 1140.565,326.073 1147.381,328.831C1151.946,330.678 1155.333,334.307 1158.511,339.48C1162.467,345.918 1165.921,354.503 1169.796,365.307C1177.628,387.145 1224.683,570.656 1236.839,620.353C1242.894,645.106 1247.265,658.894 1249.074,668.013C1250.347,674.431 1250.102,677.601 1247.183,681.868C1246.706,682.566 1245.943,682.689 1245.071,682.674C1243.326,682.644 1241.349,682.116 1239.126,681.313C1231.667,678.616 1222.328,672.901 1211.445,665.803Z" style="fill:rgb(215,255,100);"/>
                    </g>
                    <path d="M1192.206,342.065C1192.206,342.065 1186.564,327.242 1199.663,313.334C1208.293,304.173 1216.377,301.2 1226.295,299.65C1233.952,298.454 1242.565,298.018 1252.963,296.72C1278.465,293.539 1348.154,294.009 1368.678,300.426C1374.596,302.276 1381.166,304.192 1387.045,307.253C1391.924,309.793 1396.346,313.136 1399.013,318.327C1402.936,325.964 1403.008,336.988 1397.602,353.591C1381.8,402.126 1304.837,609.995 1294.54,644.792C1292.067,653.147 1288.758,658.673 1284.863,661.634C1278.344,666.59 1271.24,661.03 1269.646,652.561C1265.677,631.47 1202.59,383.134 1192.55,343.122L1192.547,343.107C1192.457,342.752 1192.343,342.404 1192.206,342.065Z" style="fill:rgb(215,255,100);"/>
                    <g transform="matrix(-0.999437,0.033546,-0.033546,-0.999437,2569.726812,1389.945983)">
                        <path d="M1179.004,353.865C1172.456,330.229 1173.148,315.856 1178.918,306.719C1184.379,298.073 1194.129,294.821 1204.042,292.251C1230.16,285.483 1259.459,281.978 1285.259,282.086C1313.485,282.204 1348.7,288.592 1372.877,298.173C1387.214,303.854 1399.104,307.883 1408.109,312.417C1415.226,315.999 1420.373,319.636 1422.611,325.642C1426.052,334.872 1423.363,348.166 1415.218,370.323C1397.539,418.418 1309.133,610.653 1294.85,643.932C1290.813,653.339 1287.044,659.497 1283.342,663.025C1281.595,664.69 1280.204,665.736 1278.714,665.384C1276.737,664.917 1275.229,663.048 1273.724,660.909C1271.4,657.609 1269.531,653.388 1268.138,649.06C1237.182,552.858 1197.835,421.836 1179.004,353.865Z" style="fill:rgb(215,255,100);"/>
                    </g>
                </g>
                <g transform="matrix(2.216076,-0.055378,0.055378,2.216076,-615.197397,128.024373)">
                    <g transform="matrix(1.144468,-0,0,1.144468,-74.442677,-39.188146)">
                        <g transform="matrix(1,0,0,1,1.405669,-0.733442)">
                            <path d="M673.438,267.613C675.207,268.755 674.733,278.496 674.733,278.496C674.733,278.496 675.281,290.998 675.101,298.473C674.997,300.156 674.894,301.838 674.79,303.521C674.773,303.676 672.434,358.817 623.163,398.086C608.311,409.923 587.184,419.117 595.744,412.737C646.552,374.869 669.791,315.049 672.636,268.506L673.438,267.613Z" style="fill:rgb(215,255,100);"/>
                        </g>
                        <path d="M625.818,358.728C652.34,319.758 655.608,282.263 656.945,272.223C657.709,266.484 658.992,272.363 659.008,272.529C665.062,332.877 627.929,377.407 602.255,393.584C601.297,394.188 579.209,406.44 589.024,398.628C596.152,392.954 611.852,378.945 625.818,358.728Z" style="fill:rgb(215,255,100);"/>
                        <g transform="matrix(1,0,0,1,-2.218576,-1.167272)">
                            <path d="M597.731,369.708C600.023,367.082 614.807,350.145 623.122,334.297C625.392,329.969 638.928,304.169 642.061,276.215C643.571,262.747 644.719,286.563 644.764,287.49C646.359,320.595 627.539,359.385 597.217,379.06C583.68,387.844 574.661,390.586 580.224,386.303C587.909,380.385 593.461,374.22 597.731,369.708Z" style="fill:rgb(215,255,100);"/>
                        </g>
                        <g transform="matrix(1,0,0,1,-4.021574,-2.909054)">
                            <path d="M629.087,294.473L628.72,299.519C626.45,314.769 619.217,353.234 573.477,374.412C570.334,375.867 571.186,373.345 571.865,372.864C579.613,367.376 616.427,333.72 626.293,279.007C626.649,277.037 628.213,277.082 628.35,279.072C628.977,288.132 629.15,285.471 629.087,294.473Z" style="fill:rgb(215,255,100);"/>
                        </g>
                        <g transform="matrix(1,0,0,1,-4.259971,-4.394189)">
                            <path d="M597.306,313.397C609.959,286.02 607.887,283.015 609.192,281.382C611.207,278.859 611.492,287.438 611.482,288.219C610.903,332.541 568.801,360.333 563.498,360.673C555.248,361.203 575.976,355.154 597.306,313.397Z" style="fill:rgb(215,255,100);"/>
                        </g>
                    </g>
                    <g transform="matrix(-1.274629,-0,0,-1.274629,1169.204151,629.496215)">
                        <path d="M625.818,358.728C652.34,319.758 655.608,282.263 656.945,272.223C657.709,266.484 658.992,272.363 659.008,272.529C665.062,332.877 627.929,377.407 602.255,393.584C601.297,394.188 579.209,406.44 589.024,398.628C596.152,392.954 611.852,378.945 625.818,358.728Z" style="fill:rgb(215,255,100);"/>
                        <g transform="matrix(1,0,0,1,-2.218576,-1.167272)">
                            <path d="M597.731,369.708C600.023,367.082 614.807,350.145 623.122,334.297C625.392,329.969 638.928,304.169 642.061,276.215C643.571,262.747 644.719,286.563 644.764,287.49C646.359,320.595 627.539,359.385 597.217,379.06C583.68,387.844 574.661,390.586 580.224,386.303C587.909,380.385 593.461,374.22 597.731,369.708Z" style="fill:rgb(215,255,100);"/>
                        </g>
                        <g transform="matrix(1,0,0,1,-4.021574,-2.909054)">
                            <path d="M629.087,294.473L628.72,299.519C626.45,314.769 619.217,353.234 573.477,374.412C570.334,375.867 571.186,373.345 571.865,372.864C579.613,367.376 616.427,333.72 626.293,279.007C626.649,277.037 628.213,277.082 628.35,279.072C628.977,288.132 629.15,285.471 629.087,294.473Z" style="fill:rgb(215,255,100);"/>
                        </g>
                        <g transform="matrix(1,0,0,1,-4.259971,-4.394189)">
                            <path d="M597.306,313.397C609.959,286.02 607.887,283.015 609.192,281.382C611.207,278.859 611.492,287.438 611.482,288.219C610.903,332.541 568.801,360.333 563.498,360.673C555.248,361.203 575.976,355.154 597.306,313.397Z" style="fill:rgb(215,255,100);"/>
                        </g>
                    </g>
                </g>
            </g>
            <g transform="matrix(1.188818,0,0,1.647326,-442.414503,-832.022691)">
                <path d="M1208.371,995.751L1208.371,882.807L1172.894,882.807L1172.894,852.842L1208.371,852.842L1208.371,826.335C1208.371,816.539 1211.234,808.711 1216.959,802.853C1222.684,796.994 1230.146,794.065 1239.344,794.065L1275.948,794.065L1275.948,824.03L1251.733,824.03C1246.477,824.03 1243.849,826.911 1243.849,832.674L1243.849,852.842L1280.453,852.842L1280.453,882.807L1243.849,882.807L1243.849,995.751L1208.371,995.751Z" style="fill:rgb(215,255,100);fill-rule:nonzero;"/>
                <path d="M1301.007,995.751L1301.007,852.842L1335.922,852.842L1335.922,868.977L1340.99,868.977C1343.055,863.214 1346.481,858.989 1351.267,856.3C1356.054,853.61 1361.638,852.266 1368.021,852.266L1384.915,852.266L1384.915,884.536L1367.457,884.536C1358.447,884.536 1351.033,886.985 1345.214,891.883C1339.394,896.781 1336.485,904.32 1336.485,914.5L1336.485,995.751L1301.007,995.751Z" style="fill:rgb(215,255,100);fill-rule:nonzero;"/>
                <path d="M1464.035,999.784C1450.145,999.784 1437.896,996.759 1427.291,990.708C1416.685,984.658 1408.426,976.11 1402.513,965.066C1396.6,954.021 1393.643,941.007 1393.643,926.025L1393.643,922.568C1393.643,907.585 1396.553,894.572 1402.372,883.527C1408.191,872.482 1416.356,863.935 1426.868,857.884C1437.38,851.834 1449.582,848.808 1463.472,848.808C1477.175,848.808 1489.095,851.93 1499.231,858.172C1509.368,864.415 1517.252,873.059 1522.883,884.103C1528.514,895.148 1531.33,907.969 1531.33,922.568L1531.33,934.957L1429.684,934.957C1430.059,944.753 1433.626,952.724 1440.384,958.871C1447.141,965.018 1455.401,968.091 1465.162,968.091C1475.11,968.091 1482.431,965.882 1487.124,961.464C1491.817,957.046 1495.383,952.148 1497.824,946.77L1526.825,962.328C1524.197,967.323 1520.396,972.749 1515.422,978.607C1510.447,984.466 1503.83,989.46 1495.571,993.59C1487.312,997.719 1476.8,999.784 1464.035,999.784ZM1429.966,907.873L1495.289,907.873C1494.539,899.614 1491.301,892.987 1485.575,887.993C1479.85,882.999 1472.389,880.502 1463.191,880.502C1453.617,880.502 1446.015,882.999 1440.384,887.993C1434.752,892.987 1431.28,899.614 1429.966,907.873Z" style="fill:rgb(215,255,100);fill-rule:nonzero;"/>
                <path d="M1613.83,999.784C1595.622,999.784 1580.698,995.751 1569.06,987.683C1557.422,979.616 1550.383,968.091 1547.943,953.109L1580.605,944.465C1581.919,951.188 1584.124,956.47 1587.221,960.312C1590.319,964.153 1594.167,966.89 1598.766,968.523C1603.365,970.156 1608.386,970.972 1613.83,970.972C1622.089,970.972 1628.19,969.483 1632.132,966.506C1636.074,963.529 1638.045,959.831 1638.045,955.414C1638.045,950.996 1636.167,947.586 1632.413,945.185C1628.659,942.784 1622.652,940.815 1614.393,939.279L1606.509,937.838C1596.748,935.917 1587.832,933.276 1579.76,929.915C1571.688,926.553 1565.212,921.895 1560.332,915.941C1555.451,909.986 1553.011,902.303 1553.011,892.891C1553.011,878.677 1558.079,867.776 1568.216,860.189C1578.352,852.602 1591.68,848.808 1608.198,848.808C1623.778,848.808 1636.731,852.362 1647.055,859.469C1657.379,866.576 1664.137,875.892 1667.328,887.417L1634.384,897.789C1632.882,890.49 1629.832,885.304 1625.233,882.231C1620.634,879.157 1614.956,877.621 1608.198,877.621C1601.441,877.621 1596.279,878.821 1592.712,881.222C1589.146,883.623 1587.362,886.937 1587.362,891.162C1587.362,895.772 1589.239,899.182 1592.994,901.391C1596.748,903.6 1601.816,905.28 1608.198,906.433L1616.082,907.873C1626.594,909.794 1636.121,912.339 1644.661,915.509C1653.202,918.678 1659.96,923.192 1664.934,929.05C1669.909,934.909 1672.396,942.832 1672.396,952.82C1672.396,967.803 1667.093,979.376 1656.487,987.539C1645.882,995.703 1631.662,999.784 1613.83,999.784Z" style="fill:rgb(215,255,100);fill-rule:nonzero;"/>
                <path d="M1696.329,995.751L1696.329,794.065L1731.807,794.065L1731.807,870.418L1736.875,870.418C1738.377,867.344 1740.723,864.271 1743.914,861.198C1747.105,858.124 1751.376,855.579 1756.726,853.562C1762.075,851.546 1768.88,850.537 1777.139,850.537C1788.027,850.537 1797.553,853.082 1805.719,858.172C1813.884,863.262 1820.219,870.273 1824.724,879.205C1829.229,888.137 1831.482,898.557 1831.482,910.466L1831.482,995.751L1796.004,995.751L1796.004,913.348C1796.004,902.591 1793.423,894.524 1788.261,889.145C1783.099,883.767 1775.731,881.078 1766.158,881.078C1755.271,881.078 1746.824,884.776 1740.817,892.171C1734.81,899.566 1731.807,909.89 1731.807,923.144L1731.807,995.751L1696.329,995.751Z" style="fill:rgb(215,255,100);fill-rule:nonzero;"/>
                <g transform="matrix(1,0,0,1,-0.69704,0)">
                    <path d="M1873.999,995.751L1854.289,852.842L1889.485,852.842L1901.874,971.26L1906.942,971.26L1924.963,852.842L1981.84,852.842L1999.86,971.26L2004.928,971.26L2017.317,852.842L2052.513,852.842L2032.803,995.751L1973.956,995.751L1955.935,877.332L1950.867,877.332L1932.847,995.751L1873.999,995.751Z" style="fill:rgb(215,255,100);fill-rule:nonzero;"/>
                </g>
                <g transform="matrix(1,0,0,1,-1.394081,0)">
                    <path d="M2119.808,999.784C2109.859,999.784 2100.943,998.008 2093.059,994.454C2085.175,990.901 2078.934,985.714 2074.335,978.895C2069.736,972.077 2067.436,963.769 2067.436,953.973C2067.436,944.177 2069.736,935.965 2074.335,929.338C2078.934,922.712 2085.316,917.718 2093.481,914.356C2101.647,910.995 2110.986,909.314 2121.497,909.314L2159.791,909.314L2159.791,901.247C2159.791,894.524 2157.726,889.001 2153.596,884.68C2149.467,880.358 2142.897,878.197 2133.886,878.197C2125.064,878.197 2118.494,880.262 2114.177,884.391C2109.859,888.521 2107.044,893.851 2105.73,900.382L2073.068,889.145C2075.32,881.846 2078.934,875.172 2083.908,869.121C2088.882,863.07 2095.546,858.172 2103.899,854.427C2112.253,850.681 2122.436,848.808 2134.45,848.808C2152.845,848.808 2167.393,853.514 2178.093,862.926C2188.792,872.338 2194.142,885.976 2194.142,903.84L2194.142,957.142C2194.142,962.905 2196.77,965.786 2202.026,965.786L2213.289,965.786L2213.289,995.751L2189.637,995.751C2182.692,995.751 2176.966,994.022 2172.461,990.564C2167.956,987.107 2165.704,982.497 2165.704,976.735L2165.704,976.446L2160.354,976.446C2159.603,978.751 2157.914,981.777 2155.286,985.522C2152.658,989.268 2148.528,992.581 2142.897,995.462C2137.265,998.344 2129.569,999.784 2119.808,999.784ZM2126.002,970.396C2135.951,970.396 2144.07,967.563 2150.358,961.896C2156.647,956.23 2159.791,948.691 2159.791,939.279L2159.791,936.397L2124.032,936.397C2117.462,936.397 2112.3,937.838 2108.545,940.719C2104.791,943.601 2102.914,947.634 2102.914,952.82C2102.914,958.007 2104.885,962.232 2108.827,965.498C2112.769,968.763 2118.494,970.396 2126.002,970.396Z" style="fill:rgb(215,255,100);fill-rule:nonzero;"/>
                </g>
                <path d="M2219.765,995.751L2270.447,923.72L2220.328,852.842L2261.437,852.842L2293.254,900.382L2298.322,900.382L2330.14,852.842L2371.249,852.842L2321.129,923.72L2371.812,995.751L2330.14,995.751L2298.322,947.634L2293.254,947.634L2261.437,995.751L2219.765,995.751Z" style="fill:rgb(215,255,100);fill-rule:nonzero;"/>
            </g>
        </g>
    </g>
</svg>
