<svg xmlns="http://www.w3.org/2000/svg" version="1.1" xmlns:xlink="http://www.w3.org/1999/xlink" width="1000" height="1000"><metadata><rdf:RDF xmlns:rdf="http://www.w3.org/1999/02/22-rdf-syntax-ns#" xmlns:dc="http://purl.org/dc/elements/1.1/"><rdf:Description><dc:creator>RealFaviconGenerator</dc:creator><dc:source>https://realfavicongenerator.net</dc:source></rdf:Description></rdf:RDF></metadata><style>
    #light-icon {
      display: inline;
    }
    #dark-icon {
      display: none;
    }

    @media (prefers-color-scheme: dark) {
      #light-icon {
        display: none;
      }
      #dark-icon {
        display: inline;
      }
    }
  </style><g id="light-icon"><svg xmlns="http://www.w3.org/2000/svg" version="1.1" xmlns:xlink="http://www.w3.org/1999/xlink" width="1000" height="1000"><g><g transform="matrix(1.2345679012345678,0,0,1.2345679012345678,0,6.172839506172863)"><svg xmlns="http://www.w3.org/2000/svg" version="1.1" xmlns:xlink="http://www.w3.org/1999/xlink" width="810" height="800" viewBox="0 0 810 800" xml:space="preserve" xmlns:serif="http://www.serif.com/" style="fill-rule:evenodd;clip-rule:evenodd;stroke-linejoin:round;stroke-miterlimit:2;"><g transform="matrix(1,0,0,1,-193,-200)">
        <g transform="matrix(1.206776,0,0,0.851079,1.206776,11.915106)">
            <g transform="matrix(0.762425,0.201359,-0.142008,1.08107,186.574467,-189.189789)">
                <g transform="matrix(0.991965,-0.126512,0.126512,0.991965,-820.225148,158.258296)">
                    <path d="M1337.987,668.05C1328.801,675.789 1321.53,680.226 1315.789,681.857C1312.948,682.664 1310.828,682.933 1309.515,681.54C1308.166,680.108 1307.71,677.836 1307.488,675.204C1306.976,669.155 1308.429,661.526 1311.305,653.677C1322.362,623.503 1412.586,376.737 1418.273,361.762C1421.175,354.123 1426.986,339.659 1441.18,334.194C1450.892,330.455 1464.188,331.213 1482.65,340.022C1534.087,364.565 1573.654,397.446 1586.811,414.715C1598.381,429.9 1615.639,459.96 1585.596,480.586C1550.371,504.771 1374.949,636.909 1337.987,668.05Z" style="fill:rgb(45,109,246);"></path>
                    <g transform="matrix(0.395121,-0.918629,0.918629,0.395121,100.879785,1616.698749)">
                        <path d="M1239.635,679.713C1233.22,674.041 1168.74,617.073 1109.053,566.084C1071.392,533.912 1040.985,513.875 1018.604,497.647C1004.515,487.43 993.721,478.894 986.595,469.53C978.507,458.901 973.711,449.68 973.913,440.184C974.114,430.723 979.334,421.365 989.679,410.318C1019.092,378.91 1071.486,343.118 1117.852,330.845C1128.082,328.137 1136.209,326.347 1142.79,325.715C1148.038,325.21 1152.07,325.381 1155.278,326.815C1159.954,328.907 1162.355,333.648 1164.948,340.755C1168.396,350.209 1171.383,363.317 1175.856,380.684C1181.659,403.212 1229.221,567.436 1241.41,617.267C1247.445,641.938 1251.07,655.901 1252.609,664.584C1253.614,670.25 1253.923,672.5 1252.447,674.806C1249.952,678.704 1244.73,682.582 1239.637,679.714L1239.635,679.713Z" style="fill:rgb(45,109,246);"></path>
                    </g>
                    <g transform="matrix(-0.218546,0.975827,-0.975827,-0.218546,2270.833993,-365.417624)">
                        <path d="M1239.983,681.623C1234.655,677.33 1165.701,621.669 1106.701,568.813C1044.54,513.123 1014.606,493.048 992.031,469.362C985.693,462.712 979.77,457.553 975.348,452.567C972.151,448.963 969.749,445.635 969.484,441.353C969.062,434.528 973.223,426.282 982.867,413.351C996.052,395.673 1034.617,352.181 1122.679,328.211C1131.62,325.777 1138.662,326.186 1144.28,328.771C1149.879,331.348 1153.961,335.963 1157.227,341.248C1162.327,349.5 1165.439,359.404 1168.06,367.723C1175.041,389.876 1224.669,570.6 1236.839,620.353C1244.051,649.835 1248.411,666.368 1249.746,676.403C1250.298,680.546 1250.65,682.938 1249.535,684.681C1249.276,685.086 1249.055,685.437 1248.743,685.635C1248.518,685.778 1248.26,685.589 1247.97,685.53C1247.362,685.407 1246.727,685.193 1246.059,684.922C1244.199,684.17 1242.187,683.023 1239.991,681.629L1239.983,681.623Z" style="fill:rgb(45,109,246);"></path>
                    </g>
                    <g transform="matrix(-0.221138,-0.975243,0.975243,-0.221138,846.699478,2128.798329)">
                        <path d="M1211.445,665.803C1185.165,648.661 1155.144,627.558 1088.09,579.591C1021.578,532.012 1002.724,524.129 971.653,502.93C959.905,494.915 953.525,486.519 952.036,476.981C949.627,461.556 959.011,444.31 974.362,423.727C987.566,406.024 1030.9,354.478 1119.09,330.473C1131.735,327.031 1140.565,326.073 1147.381,328.831C1151.946,330.678 1155.333,334.307 1158.511,339.48C1162.467,345.918 1165.921,354.503 1169.796,365.307C1177.628,387.145 1224.683,570.656 1236.839,620.353C1242.894,645.106 1247.265,658.894 1249.074,668.013C1250.347,674.431 1250.102,677.601 1247.183,681.868C1246.706,682.566 1245.943,682.689 1245.071,682.674C1243.326,682.644 1241.349,682.116 1239.126,681.313C1231.667,678.616 1222.328,672.901 1211.445,665.803Z" style="fill:rgb(45,109,246);"></path>
                    </g>
                    <path d="M1192.206,342.065C1192.206,342.065 1186.564,327.242 1199.663,313.334C1208.293,304.173 1216.377,301.2 1226.295,299.65C1233.952,298.454 1242.565,298.018 1252.963,296.72C1278.465,293.539 1348.154,294.009 1368.678,300.426C1374.596,302.276 1381.166,304.192 1387.045,307.253C1391.924,309.793 1396.346,313.136 1399.013,318.327C1402.936,325.964 1403.008,336.988 1397.602,353.591C1381.8,402.126 1304.837,609.995 1294.54,644.792C1292.067,653.147 1288.758,658.673 1284.863,661.634C1278.344,666.59 1271.24,661.03 1269.646,652.561C1265.677,631.47 1202.59,383.134 1192.55,343.122L1192.547,343.107C1192.457,342.752 1192.343,342.404 1192.206,342.065Z" style="fill:rgb(45,109,246);"></path>
                    <g transform="matrix(-0.999437,0.033546,-0.033546,-0.999437,2569.726812,1389.945983)">
                        <path d="M1179.004,353.865C1172.456,330.229 1173.148,315.856 1178.918,306.719C1184.379,298.073 1194.129,294.821 1204.042,292.251C1230.16,285.483 1259.459,281.978 1285.259,282.086C1313.485,282.204 1348.7,288.592 1372.877,298.173C1387.214,303.854 1399.104,307.883 1408.109,312.417C1415.226,315.999 1420.373,319.636 1422.611,325.642C1426.052,334.872 1423.363,348.166 1415.218,370.323C1397.539,418.418 1309.133,610.653 1294.85,643.932C1290.813,653.339 1287.044,659.497 1283.342,663.025C1281.595,664.69 1280.204,665.736 1278.714,665.384C1276.737,664.917 1275.229,663.048 1273.724,660.909C1271.4,657.609 1269.531,653.388 1268.138,649.06C1237.182,552.858 1197.835,421.836 1179.004,353.865Z" style="fill:rgb(45,109,246);"></path>
                    </g>
                </g>
                <g transform="matrix(2.216076,-0.055378,0.055378,2.216076,-615.197397,128.024373)">
                    <g transform="matrix(1.144468,-0,0,1.144468,-74.442677,-39.188146)">
                        <g transform="matrix(1,0,0,1,1.405669,-0.733442)">
                            <path d="M673.438,267.613C675.207,268.755 674.733,278.496 674.733,278.496C674.733,278.496 675.281,290.998 675.101,298.473C674.997,300.156 674.894,301.838 674.79,303.521C674.773,303.676 672.434,358.817 623.163,398.086C608.311,409.923 587.184,419.117 595.744,412.737C646.552,374.869 669.791,315.049 672.636,268.506L673.438,267.613Z" style="fill:rgb(45,109,246);"></path>
                        </g>
                        <path d="M625.818,358.728C652.34,319.758 655.608,282.263 656.945,272.223C657.709,266.484 658.992,272.363 659.008,272.529C665.062,332.877 627.929,377.407 602.255,393.584C601.297,394.188 579.209,406.44 589.024,398.628C596.152,392.954 611.852,378.945 625.818,358.728Z" style="fill:rgb(45,109,246);"></path>
                        <g transform="matrix(1,0,0,1,-2.218576,-1.167272)">
                            <path d="M597.731,369.708C600.023,367.082 614.807,350.145 623.122,334.297C625.392,329.969 638.928,304.169 642.061,276.215C643.571,262.747 644.719,286.563 644.764,287.49C646.359,320.595 627.539,359.385 597.217,379.06C583.68,387.844 574.661,390.586 580.224,386.303C587.909,380.385 593.461,374.22 597.731,369.708Z" style="fill:rgb(45,109,246);"></path>
                        </g>
                        <g transform="matrix(1,0,0,1,-4.021574,-2.909054)">
                            <path d="M629.087,294.473L628.72,299.519C626.45,314.769 619.217,353.234 573.477,374.412C570.334,375.867 571.186,373.345 571.865,372.864C579.613,367.376 616.427,333.72 626.293,279.007C626.649,277.037 628.213,277.082 628.35,279.072C628.977,288.132 629.15,285.471 629.087,294.473Z" style="fill:rgb(45,109,246);"></path>
                        </g>
                        <g transform="matrix(1,0,0,1,-4.259971,-4.394189)">
                            <path d="M597.306,313.397C609.959,286.02 607.887,283.015 609.192,281.382C611.207,278.859 611.492,287.438 611.482,288.219C610.903,332.541 568.801,360.333 563.498,360.673C555.248,361.203 575.976,355.154 597.306,313.397Z" style="fill:rgb(45,109,246);"></path>
                        </g>
                    </g>
                    <g transform="matrix(-1.274629,-0,0,-1.274629,1169.204151,629.496215)">
                        <path d="M625.818,358.728C652.34,319.758 655.608,282.263 656.945,272.223C657.709,266.484 658.992,272.363 659.008,272.529C665.062,332.877 627.929,377.407 602.255,393.584C601.297,394.188 579.209,406.44 589.024,398.628C596.152,392.954 611.852,378.945 625.818,358.728Z" style="fill:rgb(45,109,246);"></path>
                        <g transform="matrix(1,0,0,1,-2.218576,-1.167272)">
                            <path d="M597.731,369.708C600.023,367.082 614.807,350.145 623.122,334.297C625.392,329.969 638.928,304.169 642.061,276.215C643.571,262.747 644.719,286.563 644.764,287.49C646.359,320.595 627.539,359.385 597.217,379.06C583.68,387.844 574.661,390.586 580.224,386.303C587.909,380.385 593.461,374.22 597.731,369.708Z" style="fill:rgb(45,109,246);"></path>
                        </g>
                        <g transform="matrix(1,0,0,1,-4.021574,-2.909054)">
                            <path d="M629.087,294.473L628.72,299.519C626.45,314.769 619.217,353.234 573.477,374.412C570.334,375.867 571.186,373.345 571.865,372.864C579.613,367.376 616.427,333.72 626.293,279.007C626.649,277.037 628.213,277.082 628.35,279.072C628.977,288.132 629.15,285.471 629.087,294.473Z" style="fill:rgb(45,109,246);"></path>
                        </g>
                        <g transform="matrix(1,0,0,1,-4.259971,-4.394189)">
                            <path d="M597.306,313.397C609.959,286.02 607.887,283.015 609.192,281.382C611.207,278.859 611.492,287.438 611.482,288.219C610.903,332.541 568.801,360.333 563.498,360.673C555.248,361.203 575.976,355.154 597.306,313.397Z" style="fill:rgb(45,109,246);"></path>
                        </g>
                    </g>
                </g>
            </g>
        </g>
    </g></svg></g></g></svg></g><g id="dark-icon"><svg xmlns="http://www.w3.org/2000/svg" version="1.1" xmlns:xlink="http://www.w3.org/1999/xlink" width="1000" height="1000"><g><g transform="matrix(1.2345679012345678,0,0,1.2345679012345678,0,6.172839506172863)"><svg xmlns="http://www.w3.org/2000/svg" version="1.1" xmlns:xlink="http://www.w3.org/1999/xlink" width="810" height="800" viewBox="0 0 810 800" xml:space="preserve" xmlns:serif="http://www.serif.com/" style="fill-rule:evenodd;clip-rule:evenodd;stroke-linejoin:round;stroke-miterlimit:2;"><g transform="matrix(1,0,0,1,-193,-200)">
        <g transform="matrix(1.206776,0,0,0.851079,1.206776,11.915106)">
            <g transform="matrix(0.762425,0.201359,-0.142008,1.08107,186.574467,-189.189789)">
                <g transform="matrix(0.991965,-0.126512,0.126512,0.991965,-820.225148,158.258296)">
                    <path d="M1337.987,668.05C1328.801,675.789 1321.53,680.226 1315.789,681.857C1312.948,682.664 1310.828,682.933 1309.515,681.54C1308.166,680.108 1307.71,677.836 1307.488,675.204C1306.976,669.155 1308.429,661.526 1311.305,653.677C1322.362,623.503 1412.586,376.737 1418.273,361.762C1421.175,354.123 1426.986,339.659 1441.18,334.194C1450.892,330.455 1464.188,331.213 1482.65,340.022C1534.087,364.565 1573.654,397.446 1586.811,414.715C1598.381,429.9 1615.639,459.96 1585.596,480.586C1550.371,504.771 1374.949,636.909 1337.987,668.05Z" style="fill:rgb(215,255,100);"></path>
                    <g transform="matrix(0.395121,-0.918629,0.918629,0.395121,100.879785,1616.698749)">
                        <path d="M1239.635,679.713C1233.22,674.041 1168.74,617.073 1109.053,566.084C1071.392,533.912 1040.985,513.875 1018.604,497.647C1004.515,487.43 993.721,478.894 986.595,469.53C978.507,458.901 973.711,449.68 973.913,440.184C974.114,430.723 979.334,421.365 989.679,410.318C1019.092,378.91 1071.486,343.118 1117.852,330.845C1128.082,328.137 1136.209,326.347 1142.79,325.715C1148.038,325.21 1152.07,325.381 1155.278,326.815C1159.954,328.907 1162.355,333.648 1164.948,340.755C1168.396,350.209 1171.383,363.317 1175.856,380.684C1181.659,403.212 1229.221,567.436 1241.41,617.267C1247.445,641.938 1251.07,655.901 1252.609,664.584C1253.614,670.25 1253.923,672.5 1252.447,674.806C1249.952,678.704 1244.73,682.582 1239.637,679.714L1239.635,679.713Z" style="fill:rgb(215,255,100);"></path>
                    </g>
                    <g transform="matrix(-0.218546,0.975827,-0.975827,-0.218546,2270.833993,-365.417624)">
                        <path d="M1239.983,681.623C1234.655,677.33 1165.701,621.669 1106.701,568.813C1044.54,513.123 1014.606,493.048 992.031,469.362C985.693,462.712 979.77,457.553 975.348,452.567C972.151,448.963 969.749,445.635 969.484,441.353C969.062,434.528 973.223,426.282 982.867,413.351C996.052,395.673 1034.617,352.181 1122.679,328.211C1131.62,325.777 1138.662,326.186 1144.28,328.771C1149.879,331.348 1153.961,335.963 1157.227,341.248C1162.327,349.5 1165.439,359.404 1168.06,367.723C1175.041,389.876 1224.669,570.6 1236.839,620.353C1244.051,649.835 1248.411,666.368 1249.746,676.403C1250.298,680.546 1250.65,682.938 1249.535,684.681C1249.276,685.086 1249.055,685.437 1248.743,685.635C1248.518,685.778 1248.26,685.589 1247.97,685.53C1247.362,685.407 1246.727,685.193 1246.059,684.922C1244.199,684.17 1242.187,683.023 1239.991,681.629L1239.983,681.623Z" style="fill:rgb(215,255,100);"></path>
                    </g>
                    <g transform="matrix(-0.221138,-0.975243,0.975243,-0.221138,846.699478,2128.798329)">
                        <path d="M1211.445,665.803C1185.165,648.661 1155.144,627.558 1088.09,579.591C1021.578,532.012 1002.724,524.129 971.653,502.93C959.905,494.915 953.525,486.519 952.036,476.981C949.627,461.556 959.011,444.31 974.362,423.727C987.566,406.024 1030.9,354.478 1119.09,330.473C1131.735,327.031 1140.565,326.073 1147.381,328.831C1151.946,330.678 1155.333,334.307 1158.511,339.48C1162.467,345.918 1165.921,354.503 1169.796,365.307C1177.628,387.145 1224.683,570.656 1236.839,620.353C1242.894,645.106 1247.265,658.894 1249.074,668.013C1250.347,674.431 1250.102,677.601 1247.183,681.868C1246.706,682.566 1245.943,682.689 1245.071,682.674C1243.326,682.644 1241.349,682.116 1239.126,681.313C1231.667,678.616 1222.328,672.901 1211.445,665.803Z" style="fill:rgb(215,255,100);"></path>
                    </g>
                    <path d="M1192.206,342.065C1192.206,342.065 1186.564,327.242 1199.663,313.334C1208.293,304.173 1216.377,301.2 1226.295,299.65C1233.952,298.454 1242.565,298.018 1252.963,296.72C1278.465,293.539 1348.154,294.009 1368.678,300.426C1374.596,302.276 1381.166,304.192 1387.045,307.253C1391.924,309.793 1396.346,313.136 1399.013,318.327C1402.936,325.964 1403.008,336.988 1397.602,353.591C1381.8,402.126 1304.837,609.995 1294.54,644.792C1292.067,653.147 1288.758,658.673 1284.863,661.634C1278.344,666.59 1271.24,661.03 1269.646,652.561C1265.677,631.47 1202.59,383.134 1192.55,343.122L1192.547,343.107C1192.457,342.752 1192.343,342.404 1192.206,342.065Z" style="fill:rgb(215,255,100);"></path>
                    <g transform="matrix(-0.999437,0.033546,-0.033546,-0.999437,2569.726812,1389.945983)">
                        <path d="M1179.004,353.865C1172.456,330.229 1173.148,315.856 1178.918,306.719C1184.379,298.073 1194.129,294.821 1204.042,292.251C1230.16,285.483 1259.459,281.978 1285.259,282.086C1313.485,282.204 1348.7,288.592 1372.877,298.173C1387.214,303.854 1399.104,307.883 1408.109,312.417C1415.226,315.999 1420.373,319.636 1422.611,325.642C1426.052,334.872 1423.363,348.166 1415.218,370.323C1397.539,418.418 1309.133,610.653 1294.85,643.932C1290.813,653.339 1287.044,659.497 1283.342,663.025C1281.595,664.69 1280.204,665.736 1278.714,665.384C1276.737,664.917 1275.229,663.048 1273.724,660.909C1271.4,657.609 1269.531,653.388 1268.138,649.06C1237.182,552.858 1197.835,421.836 1179.004,353.865Z" style="fill:rgb(215,255,100);"></path>
                    </g>
                </g>
                <g transform="matrix(2.216076,-0.055378,0.055378,2.216076,-615.197397,128.024373)">
                    <g transform="matrix(1.144468,-0,0,1.144468,-74.442677,-39.188146)">
                        <g transform="matrix(1,0,0,1,1.405669,-0.733442)">
                            <path d="M673.438,267.613C675.207,268.755 674.733,278.496 674.733,278.496C674.733,278.496 675.281,290.998 675.101,298.473C674.997,300.156 674.894,301.838 674.79,303.521C674.773,303.676 672.434,358.817 623.163,398.086C608.311,409.923 587.184,419.117 595.744,412.737C646.552,374.869 669.791,315.049 672.636,268.506L673.438,267.613Z" style="fill:rgb(215,255,100);"></path>
                        </g>
                        <path d="M625.818,358.728C652.34,319.758 655.608,282.263 656.945,272.223C657.709,266.484 658.992,272.363 659.008,272.529C665.062,332.877 627.929,377.407 602.255,393.584C601.297,394.188 579.209,406.44 589.024,398.628C596.152,392.954 611.852,378.945 625.818,358.728Z" style="fill:rgb(215,255,100);"></path>
                        <g transform="matrix(1,0,0,1,-2.218576,-1.167272)">
                            <path d="M597.731,369.708C600.023,367.082 614.807,350.145 623.122,334.297C625.392,329.969 638.928,304.169 642.061,276.215C643.571,262.747 644.719,286.563 644.764,287.49C646.359,320.595 627.539,359.385 597.217,379.06C583.68,387.844 574.661,390.586 580.224,386.303C587.909,380.385 593.461,374.22 597.731,369.708Z" style="fill:rgb(215,255,100);"></path>
                        </g>
                        <g transform="matrix(1,0,0,1,-4.021574,-2.909054)">
                            <path d="M629.087,294.473L628.72,299.519C626.45,314.769 619.217,353.234 573.477,374.412C570.334,375.867 571.186,373.345 571.865,372.864C579.613,367.376 616.427,333.72 626.293,279.007C626.649,277.037 628.213,277.082 628.35,279.072C628.977,288.132 629.15,285.471 629.087,294.473Z" style="fill:rgb(215,255,100);"></path>
                        </g>
                        <g transform="matrix(1,0,0,1,-4.259971,-4.394189)">
                            <path d="M597.306,313.397C609.959,286.02 607.887,283.015 609.192,281.382C611.207,278.859 611.492,287.438 611.482,288.219C610.903,332.541 568.801,360.333 563.498,360.673C555.248,361.203 575.976,355.154 597.306,313.397Z" style="fill:rgb(215,255,100);"></path>
                        </g>
                    </g>
                    <g transform="matrix(-1.274629,-0,0,-1.274629,1169.204151,629.496215)">
                        <path d="M625.818,358.728C652.34,319.758 655.608,282.263 656.945,272.223C657.709,266.484 658.992,272.363 659.008,272.529C665.062,332.877 627.929,377.407 602.255,393.584C601.297,394.188 579.209,406.44 589.024,398.628C596.152,392.954 611.852,378.945 625.818,358.728Z" style="fill:rgb(215,255,100);"></path>
                        <g transform="matrix(1,0,0,1,-2.218576,-1.167272)">
                            <path d="M597.731,369.708C600.023,367.082 614.807,350.145 623.122,334.297C625.392,329.969 638.928,304.169 642.061,276.215C643.571,262.747 644.719,286.563 644.764,287.49C646.359,320.595 627.539,359.385 597.217,379.06C583.68,387.844 574.661,390.586 580.224,386.303C587.909,380.385 593.461,374.22 597.731,369.708Z" style="fill:rgb(215,255,100);"></path>
                        </g>
                        <g transform="matrix(1,0,0,1,-4.021574,-2.909054)">
                            <path d="M629.087,294.473L628.72,299.519C626.45,314.769 619.217,353.234 573.477,374.412C570.334,375.867 571.186,373.345 571.865,372.864C579.613,367.376 616.427,333.72 626.293,279.007C626.649,277.037 628.213,277.082 628.35,279.072C628.977,288.132 629.15,285.471 629.087,294.473Z" style="fill:rgb(215,255,100);"></path>
                        </g>
                        <g transform="matrix(1,0,0,1,-4.259971,-4.394189)">
                            <path d="M597.306,313.397C609.959,286.02 607.887,283.015 609.192,281.382C611.207,278.859 611.492,287.438 611.482,288.219C610.903,332.541 568.801,360.333 563.498,360.673C555.248,361.203 575.976,355.154 597.306,313.397Z" style="fill:rgb(215,255,100);"></path>
                        </g>
                    </g>
                </g>
            </g>
        </g>
    </g></svg></g></g></svg></g></svg>